<svg xmlns="http://www.w3.org/2000/svg" width="1024" height="1024" viewBox="0 0 1024 1024">
<g>
<path d="M 0.00 0.00 L 1024.00 0.00 L 1024.00 1024.00 L 0.00 1024.00 ZM 195.25 751.36 C196.49,751.64 206.73,751.67 218.00,751.44 C277.40,750.24 597.54,749.87 709.41,750.88 C778.11,751.50 834.56,751.78 834.85,751.49 C836.73,749.60 831.25,748.44 799.00,743.93 C782.61,741.63 782.49,741.62 717.00,735.97 C711.22,735.47 699.75,734.55 691.50,733.93 C683.25,733.31 676.12,732.44 675.65,732.00 C675.18,731.56 674.84,659.26 674.90,571.35 C674.96,483.43 674.64,410.93 674.19,410.24 C673.55,409.25 665.11,409.03 635.43,409.24 L 597.50 409.50 L 597.00 438.29 C596.58,462.41 596.26,467.23 595.00,468.02 C593.36,469.06 477.25,469.42 474.58,468.39 C473.71,468.06 473.00,467.24 473.00,466.57 C473.00,465.90 518.20,420.13 573.44,364.85 C632.91,305.34 674.12,263.37 674.47,261.93 C674.80,260.59 674.95,253.20 674.79,245.50 L 674.50 231.50 L 513.23 231.25 L 351.95 230.99 L 350.98 233.56 C349.46,237.55 349.67,346.27 351.20,347.80 C352.09,348.69 361.89,349.00 389.12,349.00 C409.31,349.00 426.55,348.73 427.42,348.39 C428.77,347.87 429.00,345.43 429.00,331.52 C429.00,322.57 429.28,313.84 429.62,312.12 L 430.25 309.00 L 474.62 309.00 C508.22,309.00 519.00,309.29 519.00,310.19 C519.00,311.86 437.77,393.51 436.26,393.35 C435.58,393.28 435.23,393.57 435.49,393.98 C435.75,394.40 417.18,413.73 394.23,436.95 C371.28,460.16 351.98,480.35 351.35,481.82 C350.50,483.79 350.26,513.95 350.44,596.99 C350.57,658.87 350.41,714.44 350.09,720.48 L 349.50 731.46 L 345.00 732.12 C342.52,732.49 333.30,733.32 324.50,733.97 C307.50,735.23 271.52,738.68 266.50,739.54 C264.85,739.83 258.55,740.48 252.50,740.99 C242.46,741.84 216.54,745.32 199.75,748.07 C192.90,749.20 191.17,750.46 195.25,751.36 ZM 653.00 634.50 L 652.50 730.50 L 645.50 730.74 C641.15,730.88 637.62,730.48 636.17,729.66 C634.89,728.94 583.30,677.81 521.52,616.06 C459.74,554.30 408.63,503.96 407.93,504.19 C406.91,504.53 406.63,526.81 406.53,616.27 C406.46,677.68 406.11,728.23 405.74,728.59 C405.38,728.95 397.81,729.31 388.92,729.37 L 372.76 729.50 L 372.94 610.50 C373.04,545.05 373.47,491.15 373.90,490.71 C374.33,490.28 389.94,490.05 408.59,490.21 L 442.50 490.50 L 529.48 577.25 C577.31,624.96 617.03,664.00 617.72,664.00 C618.74,664.00 619.04,640.85 619.25,547.75 L 619.50 431.50 L 634.92 431.22 C643.41,431.07 650.70,431.30 651.13,431.73 C651.56,432.16 652.04,456.13 652.20,485.00 C652.37,513.88 652.72,537.72 653.00,538.00 C653.28,538.28 653.28,581.70 653.00,634.50 ZM 440.50 466.31 C437.69,468.36 436.22,468.52 417.75,468.83 C400.43,469.11 397.92,468.95 397.39,467.56 C396.77,465.97 430.31,431.42 530.88,330.06 C553.50,307.27 572.00,288.03 572.00,287.31 C572.00,285.47 410.04,285.36 408.20,287.20 C407.36,288.04 407.00,293.66 407.00,306.08 C407.00,319.92 406.70,324.00 405.62,324.90 C404.67,325.69 399.35,325.97 388.87,325.78 L 373.50 325.50 L 372.77 318.50 C372.37,314.65 372.32,298.56 372.65,282.75 L 373.25 254.00 L 511.57 254.00 C611.70,254.00 650.07,254.31 650.57,255.11 C651.23,256.18 446.83,461.68 440.50,466.31 ZM 445.25 727.24 C443.08,729.15 434.29,730.26 431.25,729.00 L 429.00 728.06 L 429.00 647.67 C429.00,603.46 429.28,565.21 429.63,562.68 C430.24,558.26 430.35,558.12 432.53,559.29 C435.16,560.70 463.92,588.79 535.99,660.36 C595.99,719.95 603.58,727.82 602.29,729.11 C601.76,729.64 592.87,729.93 581.46,729.77 L 561.57 729.50 L 558.32 720.68 C551.65,702.60 538.24,690.23 520.28,685.57 C512.57,683.58 495.94,683.52 488.48,685.46 C471.59,689.86 456.93,701.39 450.49,715.31 C448.57,719.47 447.00,723.50 447.00,724.28 C447.00,725.06 446.21,726.39 445.25,727.24 ZM 595.90 609.09 C595.13,609.57 594.28,609.96 594.00,609.94 C593.10,609.90 473.92,491.00 474.72,490.95 C475.15,490.92 502.26,490.94 534.97,491.00 C578.90,491.07 594.63,491.40 595.16,492.26 C595.55,492.90 595.87,505.59 595.87,520.46 C595.86,535.33 596.18,561.16 596.57,577.85 C597.17,603.29 597.06,608.35 595.90,609.09 ZM 220.73 653.91 C221.90,654.60 238.46,654.87 269.50,654.73 C315.44,654.51 316.50,654.46 316.50,652.54 C316.50,649.85 310.49,646.00 306.28,646.00 C303.37,646.00 301.97,645.05 296.80,639.53 C293.46,635.96 288.85,632.14 286.55,631.03 C277.84,626.81 267.38,629.69 261.44,637.95 C257.73,643.12 256.29,643.61 236.25,646.48 C223.09,648.36 216.58,651.48 220.73,653.91 ZM 426.00 791.36 C449.33,791.95 595.39,791.18 597.75,790.46 C600.42,789.64 600.72,787.36 598.25,786.59 C590.71,784.26 491.71,783.26 440.00,785.00 C411.32,785.97 408.00,786.34 408.00,788.60 C408.00,790.54 410.77,790.97 426.00,791.36 ZM 509.22 771.02 C516.53,771.43 549.50,771.69 582.50,771.60 C629.05,771.47 643.17,771.15 645.50,770.14 C648.31,768.93 648.39,768.77 646.66,767.50 C643.32,765.04 630.01,764.50 573.50,764.52 C518.79,764.53 498.22,765.47 495.57,768.06 C493.78,769.80 496.03,770.29 509.22,771.02 ZM 725.67 671.24 C746.88,671.54 779.21,671.01 779.94,670.35 C781.45,668.99 776.05,666.67 768.40,665.39 C760.45,664.07 759.18,663.55 756.50,660.56 C752.82,656.45 748.89,654.41 742.92,653.51 C735.54,652.40 730.54,654.34 724.67,660.57 C720.13,665.39 719.10,666.00 715.53,666.01 C711.19,666.03 706.91,667.75 706.25,669.73 C705.94,670.67 710.54,671.02 725.67,671.24 ZM 880.28 582.07 C880.43,584.01 882.00,584.87 882.00,583.00 C882.00,582.45 882.69,582.00 883.54,582.00 C884.78,582.00 884.86,581.60 883.97,579.94 C883.11,578.33 882.55,578.12 881.50,579.00 C880.75,579.62 880.20,581.00 880.28,582.07 ZM 60.13 164.08 C61.09,164.68 61.99,163.98 63.20,161.71 C65.70,157.03 65.35,154.89 62.76,159.00 C61.54,160.93 60.15,162.67 59.66,162.87 C59.17,163.08 59.38,163.62 60.13,164.08 ZM 284.00 723.22 C284.00,724.73 285.94,723.97 286.96,722.07 C288.50,719.19 288.23,718.82 286.00,720.73 C284.90,721.67 284.00,722.79 284.00,723.22 ZM 768.41 60.62 C768.91,61.93 769.34,62.06 770.23,61.17 C771.12,60.28 771.12,59.72 770.22,58.82 C768.69,57.29 767.56,58.42 768.41,60.62 ZM 319.12 571.08 C321.06,572.28 321.33,571.48 319.87,568.84 C318.71,566.72 318.55,566.68 318.20,568.38 C317.98,569.41 318.40,570.63 319.12,571.08 ZM 251.00 867.06 C251.00,867.58 251.45,868.00 252.00,868.00 C252.55,868.00 253.00,867.30 253.00,866.44 C253.00,865.58 252.55,865.16 252.00,865.50 C251.45,865.84 251.00,866.54 251.00,867.06 ZM 3.50 257.00 C3.16,257.55 3.58,258.00 4.44,258.00 C5.30,258.00 6.00,257.55 6.00,257.00 C6.00,256.45 5.58,256.00 5.06,256.00 C4.54,256.00 3.84,256.45 3.50,257.00 ZM 544.00 101.00 C544.00,101.55 544.45,102.00 545.00,102.00 C545.55,102.00 546.00,101.55 546.00,101.00 C546.00,100.45 545.55,100.00 545.00,100.00 C544.45,100.00 544.00,100.45 544.00,101.00 ZM 770.00 109.00 C770.00,109.55 770.45,110.00 771.00,110.00 C771.55,110.00 772.00,109.55 772.00,109.00 C772.00,108.45 771.55,108.00 771.00,108.00 C770.45,108.00 770.00,108.45 770.00,109.00 ZM 666.00 188.00 C666.00,188.55 666.45,189.00 667.00,189.00 C667.55,189.00 668.00,188.55 668.00,188.00 C668.00,187.45 667.55,187.00 667.00,187.00 C666.45,187.00 666.00,187.45 666.00,188.00 ZM 608.00 34.00 C608.00,34.55 608.45,35.00 609.00,35.00 C609.55,35.00 610.00,34.55 610.00,34.00 C610.00,33.45 609.55,33.00 609.00,33.00 C608.45,33.00 608.00,33.45 608.00,34.00 ZM 773.00 45.00 C773.00,45.55 773.45,46.00 774.00,46.00 C774.55,46.00 775.00,45.55 775.00,45.00 C775.00,44.45 774.55,44.00 774.00,44.00 C773.45,44.00 773.00,44.45 773.00,45.00 Z" fill="rgb(8,6,4)"/>
<path d="M 431.87 473.83 C430.57,475.43 429.05,477.45 428.50,478.32 C427.62,479.72 427.19,479.74 424.87,478.48 C423.42,477.70 421.99,476.43 421.70,475.65 C421.11,474.11 417.89,473.43 405.19,472.15 C396.44,471.27 393.03,469.52 394.64,466.71 C395.11,465.89 434.88,425.52 483.00,377.00 C531.12,328.49 570.65,288.39 570.83,287.90 C571.20,286.90 412.16,286.62 409.58,287.61 C408.22,288.13 408.00,290.68 408.00,305.67 C408.00,315.80 407.57,323.94 406.96,325.07 C406.01,326.86 404.72,327.00 389.50,327.00 C374.28,327.00 372.99,326.86 372.04,325.07 C370.71,322.59 370.65,256.11 371.97,254.02 C372.79,252.71 389.86,252.57 511.70,252.85 C588.04,253.03 650.90,253.56 651.40,254.03 C651.93,254.54 651.67,255.85 650.78,257.20 C647.71,261.86 441.04,467.44 437.70,469.15 C435.80,470.13 433.18,472.23 431.87,473.83 ZM 440.50 466.31 C446.83,461.68 651.23,256.18 650.57,255.11 C650.07,254.31 611.70,254.00 511.57,254.00 L 373.25 254.00 L 372.65 282.75 C372.32,298.56 372.37,314.65 372.77,318.50 L 373.50 325.50 L 388.87 325.78 C399.35,325.97 404.67,325.69 405.62,324.90 C406.70,324.00 407.00,319.92 407.00,306.08 C407.00,293.66 407.36,288.04 408.20,287.20 C410.04,285.36 572.00,285.47 572.00,287.31 C572.00,288.03 553.50,307.27 530.88,330.06 C430.31,431.42 396.77,465.97 397.39,467.56 C397.92,468.95 400.43,469.11 417.75,468.83 C436.22,468.52 437.69,468.36 440.50,466.31 ZM 195.25 751.36 C191.17,750.46 192.90,749.20 199.75,748.07 C216.54,745.32 242.46,741.84 252.50,740.99 C258.55,740.48 264.85,739.83 266.50,739.54 C271.52,738.68 307.50,735.23 324.50,733.97 C333.30,733.32 342.52,732.49 345.00,732.12 L 349.50 731.46 L 350.09 720.48 C350.41,714.44 350.57,658.87 350.44,596.99 C350.26,513.95 350.50,483.79 351.35,481.82 C351.98,480.35 371.28,460.16 394.23,436.95 C417.18,413.73 435.75,394.40 435.49,393.98 C435.23,393.57 435.58,393.28 436.26,393.35 C437.77,393.51 519.00,311.86 519.00,310.19 C519.00,309.29 508.22,309.00 474.62,309.00 L 430.25 309.00 L 429.62 312.12 C429.28,313.84 429.00,322.57 429.00,331.52 C429.00,345.43 428.77,347.87 427.42,348.39 C426.55,348.73 409.31,349.00 389.12,349.00 C361.89,349.00 352.09,348.69 351.20,347.80 C349.67,346.27 349.46,237.55 350.98,233.56 L 351.95 230.99 L 513.23 231.25 L 674.50 231.50 L 674.79 245.50 C674.95,253.20 674.80,260.59 674.47,261.93 C674.12,263.37 632.91,305.34 573.44,364.85 C518.20,420.13 473.00,465.90 473.00,466.57 C473.00,466.94 473.21,467.35 473.55,467.70 C472.12,467.59 471.33,467.48 471.29,467.37 C471.08,466.75 506.77,430.30 550.60,386.37 C594.43,342.44 640.13,296.51 652.17,284.31 L 674.05 262.11 L 673.78 247.31 L 673.50 232.50 L 514.00 232.26 C414.62,232.12 353.93,232.38 353.00,232.98 C351.70,233.80 351.46,241.27 351.20,288.20 C351.04,318.05 351.16,343.49 351.47,344.74 L 352.04 347.00 L 428.00 347.00 L 428.00 328.20 C428.00,314.91 428.35,309.05 429.20,308.20 C430.66,306.74 517.64,306.48 519.92,307.93 C521.14,308.70 521.12,309.16 519.78,311.16 C518.92,312.45 484.98,347.03 444.36,388.01 C355.99,477.16 352.97,480.10 352.20,483.54 C352.14,483.81 352.10,484.07 352.03,484.39 C351.58,486.36 351.46,538.49 351.75,600.24 C352.31,717.29 352.03,731.39 349.17,732.49 C348.26,732.84 339.41,733.79 329.51,734.60 C313.91,735.87 281.42,739.03 253.00,742.04 C248.32,742.53 241.80,743.37 238.50,743.89 C235.20,744.41 229.12,745.37 225.00,746.02 C216.09,747.43 212.77,748.88 218.00,749.07 C219.93,749.14 330.17,749.18 463.00,749.15 C595.83,749.13 730.38,749.45 762.00,749.87 C793.62,750.29 820.26,750.72 821.19,750.82 C822.12,750.92 823.14,750.58 823.45,750.07 C824.17,748.92 817.74,747.63 798.00,744.97 C771.50,741.40 752.86,739.19 730.72,737.15 C782.60,741.64 783.85,741.81 799.00,743.93 C831.25,748.44 836.73,749.60 834.85,751.49 C834.56,751.78 778.11,751.50 709.41,750.88 C597.54,749.87 277.40,750.24 218.00,751.44 C206.73,751.67 196.49,751.64 195.25,751.36 ZM 653.00 634.50 C653.28,581.70 653.28,538.28 653.00,538.00 C652.72,537.72 652.37,513.88 652.20,485.00 C652.04,456.13 651.56,432.16 651.13,431.73 C650.70,431.30 643.41,431.07 634.92,431.22 L 619.50 431.50 L 619.25 547.75 C619.04,640.85 618.74,664.00 617.72,664.00 C617.03,664.00 577.31,624.96 529.48,577.25 L 442.50 490.50 L 408.59 490.21 C389.94,490.05 374.33,490.28 373.90,490.71 C373.47,491.15 373.04,545.05 372.94,610.50 L 372.76 729.50 L 388.92 729.37 C397.81,729.31 405.38,728.95 405.74,728.59 C406.11,728.23 406.46,677.68 406.53,616.27 C406.63,526.81 406.91,504.53 407.93,504.19 C408.63,503.96 459.74,554.30 521.52,616.06 C565.49,660.02 604.31,698.59 623.49,717.43 C614.88,709.21 602.86,697.47 588.47,683.18 C445.54,541.30 409.62,505.96 408.67,506.28 C407.93,506.52 407.65,540.29 407.75,617.23 C407.88,717.53 407.75,727.96 406.30,729.17 C404.06,731.03 373.56,731.72 372.46,729.94 C371.63,728.59 371.81,489.86 372.65,489.02 C373.29,488.37 386.73,487.39 412.28,486.12 C431.97,485.14 432.09,485.15 437.45,487.52 C444.41,490.60 468.22,492.74 471.52,490.58 C473.14,489.52 485.31,489.32 534.52,489.55 C568.06,489.71 595.84,489.88 596.25,489.92 C597.04,490.00 597.16,550.85 596.76,586.24 C596.71,583.73 596.65,580.94 596.57,577.85 C596.18,561.16 595.86,535.33 595.87,520.46 C595.87,505.59 595.55,492.90 595.16,492.26 C594.63,491.40 578.90,491.07 534.97,491.00 C502.26,490.94 475.15,490.92 474.72,490.95 C473.92,491.00 593.10,609.90 594.00,609.94 C594.28,609.96 595.13,609.57 595.90,609.09 C596.04,608.99 596.17,608.84 596.28,608.59 C596.20,610.00 596.12,610.84 596.04,610.97 C595.53,611.78 594.75,612.08 594.30,611.64 C516.31,533.44 484.00,502.36 484.00,505.54 C484.00,505.87 482.65,505.18 481.01,504.01 C478.71,502.37 478.16,502.24 478.62,503.46 C479.16,504.85 478.15,505.01 470.60,504.73 C465.85,504.55 461.42,504.74 460.76,505.15 C459.18,506.13 461.40,508.41 532.50,578.92 C565.50,611.64 597.68,643.72 604.00,650.21 C610.33,656.69 616.06,662.00 616.75,662.00 C617.73,662.00 618.04,637.83 618.25,546.25 L 618.50 430.50 L 652.48 430.50 L 653.28 435.50 C653.71,438.25 653.72,505.75 653.29,585.50 L 652.50 730.50 L 646.54 730.81 C643.26,730.97 639.44,730.83 638.04,730.49 C637.93,730.46 637.74,730.35 637.46,730.15 C639.26,730.63 642.13,730.85 645.50,730.74 L 652.50 730.50 ZM 220.73 653.91 C216.58,651.48 223.09,648.36 236.25,646.48 C256.29,643.61 257.73,643.12 261.44,637.95 C267.38,629.69 277.84,626.81 286.55,631.03 C288.85,632.14 293.46,635.96 296.80,639.53 C301.97,645.05 303.37,646.00 306.28,646.00 C310.49,646.00 316.50,649.85 316.50,652.54 C316.50,654.46 315.44,654.51 269.50,654.73 C238.46,654.87 221.90,654.60 220.73,653.91 ZM 426.00 791.36 C410.77,790.97 408.00,790.54 408.00,788.60 C408.00,786.34 411.32,785.97 440.00,785.00 C491.71,783.26 590.71,784.26 598.25,786.59 C600.72,787.36 600.42,789.64 597.75,790.46 C595.39,791.18 449.33,791.95 426.00,791.36 ZM 228.67 652.33 C229.72,653.39 315.00,653.13 315.00,652.07 C315.00,649.29 310.87,647.30 304.00,646.77 C301.84,646.60 300.60,646.02 300.75,645.25 C300.89,644.56 300.44,643.98 299.75,643.96 C299.06,643.94 297.29,642.18 295.82,640.04 C294.34,637.91 291.08,634.96 288.57,633.49 C278.84,627.78 270.20,629.44 262.46,638.49 C257.64,644.13 255.31,645.12 243.50,646.54 C230.77,648.06 226.19,649.85 228.67,652.33 ZM 509.22 771.02 C496.03,770.29 493.78,769.80 495.57,768.06 C498.22,765.47 518.79,764.53 573.50,764.52 C630.01,764.50 643.32,765.04 646.66,767.50 C648.39,768.77 648.31,768.93 645.50,770.14 C643.17,771.15 629.05,771.47 582.50,771.60 C549.50,771.69 516.53,771.43 509.22,771.02 ZM 432.50 790.03 C450.04,790.70 582.01,790.32 588.25,789.58 C589.76,789.40 592.66,789.19 594.70,789.12 C597.24,789.04 598.08,788.68 597.37,787.97 C596.07,786.67 570.42,785.69 526.00,785.23 C471.25,784.67 406.83,786.88 413.00,789.12 C413.27,789.22 422.05,789.63 432.50,790.03 ZM 512.83 770.15 C527.54,771.04 641.95,770.13 643.78,769.10 C644.72,768.58 644.88,768.04 644.21,767.63 C640.47,765.32 540.01,764.03 517.00,766.00 C497.24,767.69 495.80,769.12 512.83,770.15 ZM 880.28 582.07 C880.20,581.00 880.75,579.62 881.50,579.00 C882.55,578.12 883.11,578.33 883.97,579.94 C884.86,581.60 884.78,582.00 883.54,582.00 C882.69,582.00 882.00,582.45 882.00,583.00 C882.00,584.87 880.43,584.01 880.28,582.07 ZM 60.13 164.08 C59.38,163.62 59.17,163.08 59.66,162.87 C60.15,162.67 61.54,160.93 62.76,159.00 C65.35,154.89 65.70,157.03 63.20,161.71 C61.99,163.98 61.09,164.68 60.13,164.08 ZM 284.00 723.22 C284.00,722.79 284.90,721.67 286.00,720.73 C288.23,718.82 288.50,719.19 286.96,722.07 C285.94,723.97 284.00,724.73 284.00,723.22 ZM 319.12 571.08 C318.40,570.63 317.98,569.41 318.20,568.38 C318.55,566.68 318.71,566.72 319.87,568.84 C321.33,571.48 321.06,572.28 319.12,571.08 ZM 251.00 867.06 C251.00,866.54 251.45,865.84 252.00,865.50 C252.55,865.16 253.00,865.58 253.00,866.44 C253.00,867.30 252.55,868.00 252.00,868.00 C251.45,868.00 251.00,867.58 251.00,867.06 ZM 3.50 257.00 C3.84,256.45 4.54,256.00 5.06,256.00 C5.58,256.00 6.00,256.45 6.00,257.00 C6.00,257.55 5.30,258.00 4.44,258.00 C3.58,258.00 3.16,257.55 3.50,257.00 ZM 544.00 101.00 C544.00,100.45 544.45,100.00 545.00,100.00 C545.55,100.00 546.00,100.45 546.00,101.00 C546.00,101.55 545.55,102.00 545.00,102.00 C544.45,102.00 544.00,101.55 544.00,101.00 ZM 770.00 109.00 C770.00,108.45 770.45,108.00 771.00,108.00 C771.55,108.00 772.00,108.45 772.00,109.00 C772.00,109.55 771.55,110.00 771.00,110.00 C770.45,110.00 770.00,109.55 770.00,109.00 ZM 666.00 188.00 C666.00,187.45 666.45,187.00 667.00,187.00 C667.55,187.00 668.00,187.45 668.00,188.00 C668.00,188.55 667.55,189.00 667.00,189.00 C666.45,189.00 666.00,188.55 666.00,188.00 ZM 608.00 34.00 C608.00,33.45 608.45,33.00 609.00,33.00 C609.55,33.00 610.00,33.45 610.00,34.00 C610.00,34.55 609.55,35.00 609.00,35.00 C608.45,35.00 608.00,34.55 608.00,34.00 ZM 773.00 45.00 C773.00,44.45 773.45,44.00 774.00,44.00 C774.55,44.00 775.00,44.45 775.00,45.00 C775.00,45.55 774.55,46.00 774.00,46.00 C773.45,46.00 773.00,45.55 773.00,45.00 ZM 562.43 468.82 C580.57,468.65 594.44,468.38 595.00,468.02 C595.25,467.86 595.47,467.54 595.65,466.94 C595.47,467.55 595.25,467.87 595.00,468.03 C594.25,468.50 580.50,468.75 562.43,468.82 Z" fill="rgb(90,62,89)"/>
<path d="M 445.25 727.24 C446.21,726.39 447.00,725.06 447.00,724.28 C447.00,723.50 448.57,719.47 450.49,715.31 C456.93,701.39 471.59,689.86 488.48,685.46 C479.63,687.77 468.69,693.50 464.70,697.91 C461.54,701.41 461.21,702.25 461.97,704.90 C463.51,710.27 467.93,714.74 477.34,720.43 C482.40,723.49 486.86,726.00 487.25,726.00 C489.33,726.00 500.97,732.16 500.75,733.15 C500.61,733.79 501.85,735.03 503.50,735.91 C505.15,736.78 506.73,737.78 507.00,738.13 C507.27,738.48 509.75,739.52 512.50,740.44 C515.25,741.37 518.50,742.77 519.71,743.56 C520.93,744.35 523.26,745.00 524.88,745.00 C526.51,745.00 529.93,745.90 532.50,747.00 C537.04,748.95 539.55,749.00 624.33,749.14 C659.18,749.20 702.25,749.40 734.59,749.65 C680.72,749.34 571.28,749.13 463.00,749.15 C330.17,749.18 219.93,749.14 218.00,749.07 C212.77,748.88 216.09,747.43 225.00,746.02 C229.12,745.37 235.20,744.41 238.50,743.89 C241.80,743.37 248.32,742.53 253.00,742.04 C281.42,739.03 313.91,735.87 329.51,734.60 C339.41,733.79 348.26,732.84 349.17,732.49 C352.03,731.39 352.31,717.29 351.75,600.24 C351.46,538.49 351.58,486.36 352.03,484.39 C352.10,484.07 352.14,483.81 352.20,483.54 C352.97,480.10 355.99,477.16 444.36,388.01 C484.98,347.03 518.92,312.45 519.78,311.16 C521.12,309.16 521.14,308.70 519.92,307.93 C517.64,306.48 430.66,306.74 429.20,308.20 C428.35,309.05 428.00,314.91 428.00,328.20 L 428.00 347.00 L 352.04 347.00 L 351.47 344.74 C351.16,343.49 351.04,318.05 351.20,288.20 C351.46,241.27 351.70,233.80 353.00,232.98 C353.93,232.38 414.62,232.12 514.00,232.26 L 673.50 232.50 L 502.50 232.50 L 497.25 234.99 C494.36,236.37 492.00,237.83 492.00,238.24 C492.00,238.66 491.31,239.00 490.47,239.00 C489.12,239.00 489.12,239.34 490.53,242.05 C491.39,243.73 491.82,245.98 491.48,247.05 C490.99,248.61 491.34,249.00 493.23,249.00 C494.53,249.00 496.15,249.55 496.83,250.23 C498.14,251.54 552.46,252.74 618.19,252.91 C638.64,252.97 651.11,253.37 651.50,253.99 C651.83,254.54 651.75,255.62 651.30,256.39 C651.29,256.42 651.23,256.49 651.14,256.59 C651.73,255.47 651.85,254.46 651.40,254.03 C650.90,253.56 588.04,253.03 511.70,252.85 C389.86,252.57 372.79,252.71 371.97,254.02 C370.65,256.11 370.71,322.59 372.04,325.07 C372.99,326.86 374.28,327.00 389.50,327.00 C404.72,327.00 406.01,326.86 406.96,325.07 C407.57,323.94 408.00,315.80 408.00,305.67 C408.00,290.68 408.22,288.13 409.58,287.61 C412.16,286.62 571.20,286.90 570.83,287.90 C570.82,287.93 570.64,288.13 570.30,288.50 L 533.07 288.24 C512.48,288.09 495.38,288.32 495.07,288.74 C494.76,289.16 493.60,290.00 492.50,290.61 C489.37,292.34 489.58,294.72 493.15,297.99 C494.96,299.65 496.83,301.00 497.29,301.00 C497.76,301.00 498.82,301.67 499.64,302.50 C500.48,303.34 503.20,304.08 505.82,304.17 C511.61,304.38 513.09,304.56 515.00,305.27 C515.83,305.58 517.74,306.10 519.25,306.44 C522.76,307.20 522.73,309.08 519.12,314.32 C517.54,316.62 516.22,318.73 516.19,319.00 C516.16,319.27 515.84,320.26 515.48,321.19 C514.39,324.03 515.38,326.38 518.01,327.14 C521.36,328.11 526.72,327.23 529.86,325.18 C531.81,323.90 532.21,323.85 531.53,324.95 C529.21,328.72 539.05,319.99 554.00,305.02 L 563.64 295.36 C550.11,309.21 518.95,340.76 483.00,377.00 C434.88,425.52 395.11,465.89 394.64,466.71 C393.03,469.52 396.44,471.27 405.19,472.15 C417.89,473.43 421.11,474.11 421.70,475.65 C421.99,476.43 423.42,477.70 424.87,478.48 C427.19,479.74 427.62,479.72 428.50,478.32 C429.05,477.45 430.57,475.43 431.87,473.83 C433.18,472.23 435.80,470.13 437.70,469.15 C440.09,467.92 546.58,362.32 608.10,300.63 C600.15,308.71 591.47,317.50 582.42,326.65 C544.98,364.52 512.73,397.32 510.75,399.53 C507.37,403.33 503.22,411.55 504.19,412.53 C504.44,412.77 506.70,413.05 509.21,413.14 C511.73,413.24 514.85,413.90 516.14,414.62 C517.44,415.34 518.90,415.95 519.38,415.96 C520.19,416.00 562.55,374.24 604.73,332.06 C588.16,348.70 569.21,367.71 550.60,386.37 C506.77,430.30 471.08,466.75 471.29,467.37 C471.33,467.48 472.12,467.59 473.55,467.70 C473.83,467.99 474.19,468.24 474.58,468.39 C476.34,469.07 527.37,469.14 562.43,468.82 L 562.43 468.82 C573.58,468.78 583.07,468.67 588.90,468.48 C583.30,468.80 574.57,469.13 565.00,469.35 C549.10,469.71 534.97,470.44 533.60,470.96 C532.22,471.49 529.16,472.01 526.80,472.12 C524.43,472.23 521.60,472.77 520.50,473.31 C518.34,474.37 511.64,481.32 511.28,482.86 C511.01,484.04 522.96,486.81 533.50,488.02 C537.90,488.52 553.65,489.15 568.50,489.43 C578.45,489.61 587.33,489.78 592.24,489.87 C583.35,489.80 560.69,489.67 534.52,489.55 C485.31,489.32 473.14,489.52 471.52,490.58 C468.22,492.74 444.41,490.60 437.45,487.52 C432.09,485.15 431.97,485.14 412.28,486.12 C386.73,487.39 373.29,488.37 372.65,489.02 C371.81,489.86 371.63,728.59 372.46,729.94 C373.56,731.72 404.06,731.03 406.30,729.17 C407.75,727.96 407.88,717.53 407.75,617.23 C407.65,540.29 407.93,506.52 408.67,506.28 C409.62,505.96 445.54,541.30 588.47,683.18 C602.86,697.47 614.88,709.21 623.49,717.43 C623.84,717.77 624.18,718.11 624.52,718.44 C615.81,710.18 603.35,698.04 588.34,683.18 C541.61,636.93 532.37,628.14 529.82,627.52 C525.73,626.53 524.01,625.61 523.54,624.14 C523.26,623.24 522.00,621.86 520.76,621.08 C515.19,617.60 511.00,620.24 515.12,624.62 C516.31,625.90 517.40,628.27 517.52,629.91 C517.65,631.54 518.71,634.09 519.88,635.57 C521.05,637.06 522.00,638.83 522.00,639.51 C522.00,640.20 522.70,641.34 523.56,642.05 C525.39,643.57 531.85,652.07 537.50,660.39 C539.02,662.63 545.09,669.21 552.69,676.97 C547.63,671.93 542.08,666.42 535.99,660.36 C463.92,588.79 435.16,560.70 432.53,559.29 C430.35,558.12 430.24,558.26 429.63,562.68 C429.28,565.21 429.00,603.46 429.00,647.67 L 429.00 728.06 L 431.25 729.00 C434.29,730.26 443.08,729.15 445.25,727.24 ZM 589.41 606.73 C583.19,600.93 570.62,588.54 544.70,562.99 L 522.90 541.50 L 521.41 544.58 C520.40,546.66 519.22,547.63 517.76,547.58 C516.45,547.53 515.13,548.42 514.42,549.83 C512.75,553.11 516.31,559.18 523.63,565.56 C526.75,568.28 529.81,571.71 530.43,573.19 C531.06,574.67 535.45,580.29 540.20,585.69 C542.95,588.81 549.65,595.75 558.00,604.24 C549.87,596.15 541.21,587.56 532.50,578.92 C461.40,508.41 459.18,506.13 460.76,505.15 C461.42,504.74 465.85,504.55 470.60,504.73 C478.15,505.01 479.16,504.85 478.62,503.46 C478.16,502.24 478.71,502.37 481.01,504.01 C482.65,505.18 484.00,505.87 484.00,505.54 C484.00,502.43 514.96,532.14 589.41,606.73 ZM 228.67 652.33 C226.19,649.85 230.77,648.06 243.50,646.54 C255.31,645.12 257.64,644.13 262.46,638.49 C270.20,629.44 278.84,627.78 288.57,633.49 C291.08,634.96 294.34,637.91 295.82,640.04 C297.29,642.18 299.06,643.94 299.75,643.96 C300.44,643.98 300.89,644.56 300.75,645.25 C300.60,646.02 301.84,646.60 304.00,646.77 C310.87,647.30 315.00,649.29 315.00,652.07 C315.00,653.13 229.72,653.39 228.67,652.33 ZM 432.50 790.03 C422.05,789.63 413.27,789.22 413.00,789.12 C406.83,786.88 471.25,784.67 526.00,785.23 C570.42,785.69 596.07,786.67 597.37,787.97 C598.08,788.68 597.24,789.04 594.70,789.12 C592.66,789.19 589.76,789.40 588.25,789.58 C582.01,790.32 450.04,790.70 432.50,790.03 ZM 512.83 770.15 C495.80,769.12 497.24,767.69 517.00,766.00 C525.39,765.28 544.05,765.00 564.58,765.04 C556.19,765.13 550.22,765.38 549.77,765.83 C549.02,766.58 549.56,767.06 551.61,767.48 C553.20,767.81 555.62,768.47 557.00,768.95 C560.04,770.02 623.52,769.81 624.60,768.73 C625.02,768.31 624.82,767.42 624.16,766.76 C623.71,766.31 617.84,765.91 609.57,765.61 C628.41,766.07 642.84,766.78 644.21,767.63 C644.88,768.04 644.72,768.58 643.78,769.10 C641.95,770.13 527.54,771.04 512.83,770.15 ZM 597.06 643.20 C607.54,653.47 615.58,661.16 616.83,661.94 C616.80,661.98 616.78,662.00 616.75,662.00 C616.06,662.00 610.33,656.69 604.00,650.21 C602.70,648.88 600.32,646.47 597.06,643.20 ZM 564.45 688.68 C581.84,705.67 593.05,717.09 598.48,723.37 C593.72,718.07 583.81,707.99 564.45,688.68 ZM 617.40 656.11 C617.83,642.69 618.11,606.25 618.25,546.25 C618.10,613.58 617.89,644.47 617.40,656.11 ZM 596.40 490.69 C596.96,496.56 597.11,536.73 596.90,569.06 C597.10,536.79 596.95,496.70 596.40,490.69 ZM 789.73 750.26 C807.72,750.51 820.53,750.73 821.19,750.81 C822.02,750.90 822.92,750.65 823.33,750.24 C822.92,750.65 822.02,750.91 821.19,750.82 C820.55,750.75 807.84,750.53 789.73,750.26 ZM 595.81 466.30 C595.64,467.25 595.43,467.73 595.20,467.88 C595.19,467.88 595.18,467.89 595.16,467.90 C595.34,467.71 595.51,467.41 595.65,466.94 C595.70,466.79 595.74,466.62 595.78,466.43 C595.79,466.39 595.80,466.35 595.81,466.30 ZM 602.28 729.11 C602.28,729.12 602.28,729.12 602.28,729.12 C602.13,729.27 601.31,729.40 599.95,729.50 C601.30,729.39 602.12,729.26 602.28,729.11 ZM 595.92 611.15 C595.85,611.24 595.79,611.33 595.71,611.38 C595.78,611.31 595.85,611.24 595.92,611.15 Z" fill="rgb(159,102,164)"/>
<path d="M 557.00 768.95 C555.62,768.47 553.20,767.81 551.61,767.48 C549.56,767.06 549.02,766.58 549.77,765.83 C551.36,764.24 622.54,765.14 624.16,766.76 C624.82,767.42 625.02,768.31 624.60,768.73 C623.52,769.81 560.04,770.02 557.00,768.95 ZM 765.50 749.95 C735.80,749.58 672.27,749.22 624.33,749.14 C539.55,749.00 537.04,748.95 532.50,747.00 C529.93,745.90 526.51,745.00 524.88,745.00 C523.26,745.00 520.93,744.35 519.71,743.56 C518.50,742.77 515.25,741.37 512.50,740.44 C509.75,739.52 507.27,738.48 507.00,738.13 C506.73,737.78 505.15,736.78 503.50,735.91 C501.85,735.03 500.61,733.79 500.75,733.15 C500.97,732.16 489.33,726.00 487.25,726.00 C486.86,726.00 482.40,723.49 477.34,720.43 C467.93,714.74 463.51,710.27 461.97,704.90 C461.21,702.25 461.54,701.41 464.70,697.91 C468.69,693.50 479.63,687.77 488.48,685.46 C495.94,683.52 512.57,683.58 520.28,685.57 C538.24,690.23 551.65,702.60 558.32,720.68 L 561.57 729.50 L 581.46 729.77 C592.64,729.92 601.76,729.64 602.28,729.12 C603.49,727.91 591.07,714.66 563.50,687.75 C551.40,675.94 539.70,663.62 537.50,660.39 C531.85,652.07 525.39,643.57 523.56,642.05 C522.70,641.34 522.00,640.20 522.00,639.51 C522.00,638.83 521.05,637.06 519.88,635.57 C518.71,634.09 517.65,631.54 517.52,629.91 C517.40,628.27 516.31,625.90 515.12,624.62 C511.00,620.24 515.19,617.60 520.76,621.08 C522.00,621.86 523.26,623.24 523.54,624.14 C524.01,625.61 525.73,626.53 529.82,627.52 C532.37,628.14 541.61,636.93 588.34,683.18 C617.08,711.64 636.49,730.11 638.04,730.49 C639.44,730.83 643.26,730.97 646.54,730.81 L 652.50 730.50 L 653.29 585.50 C653.72,505.75 653.71,438.25 653.28,435.50 L 652.48 430.50 L 635.49 430.50 L 618.50 430.50 L 618.25 546.25 C618.08,623.81 617.66,662.00 616.98,662.00 C615.51,662.00 550.45,597.33 540.20,585.69 C535.45,580.29 531.06,574.67 530.43,573.19 C529.81,571.71 526.75,568.28 523.63,565.56 C516.31,559.18 512.75,553.11 514.42,549.83 C515.13,548.42 516.45,547.53 517.76,547.58 C519.22,547.63 520.40,546.66 521.41,544.58 L 522.90 541.50 L 544.70 562.99 C595.51,613.07 594.99,612.59 596.01,611.00 C597.15,609.22 597.38,490.02 596.25,489.96 C595.84,489.94 583.35,489.70 568.50,489.43 C553.65,489.15 537.90,488.52 533.50,488.02 C522.96,486.81 511.01,484.04 511.28,482.86 C511.64,481.32 518.34,474.37 520.50,473.31 C521.60,472.77 524.43,472.23 526.80,472.12 C529.16,472.01 532.22,471.49 533.60,470.96 C534.97,470.44 549.10,469.71 565.00,469.35 C580.89,468.98 594.48,468.32 595.20,467.88 C596.20,467.26 596.62,460.41 597.00,438.29 L 597.50 409.50 L 635.43 409.24 C665.11,409.03 673.55,409.25 674.19,410.24 C674.64,410.93 674.96,483.43 674.90,571.35 C674.84,659.26 675.18,731.56 675.65,732.00 C676.12,732.44 683.25,733.31 691.50,733.93 C735.52,737.24 757.64,739.54 798.00,744.97 C817.74,747.63 824.17,748.92 823.45,750.07 C823.14,750.58 822.12,750.91 821.19,750.81 C820.26,750.70 795.20,750.31 765.50,749.95 ZM 725.67 671.24 C710.54,671.02 705.94,670.67 706.25,669.73 C706.91,667.75 711.19,666.03 715.53,666.01 C719.10,666.00 720.13,665.39 724.67,660.57 C730.54,654.34 735.54,652.40 742.92,653.51 C748.89,654.41 752.82,656.45 756.50,660.56 C759.18,663.55 760.45,664.07 768.40,665.39 C776.05,666.67 781.45,668.99 779.94,670.35 C779.21,671.01 746.88,671.54 725.67,671.24 ZM 516.14 414.62 C514.85,413.90 511.73,413.24 509.21,413.14 C506.70,413.05 504.44,412.77 504.19,412.53 C503.22,411.55 507.37,403.33 510.75,399.53 C512.73,397.32 544.98,364.52 582.42,326.65 C619.87,288.78 650.86,257.16 651.30,256.39 C651.75,255.62 651.83,254.54 651.50,253.99 C651.11,253.37 638.64,252.97 618.19,252.91 C552.46,252.74 498.14,251.54 496.83,250.23 C496.15,249.55 494.53,249.00 493.23,249.00 C491.34,249.00 490.99,248.61 491.48,247.05 C491.82,245.98 491.39,243.73 490.53,242.05 C489.12,239.34 489.12,239.00 490.47,239.00 C491.31,239.00 492.00,238.66 492.00,238.24 C492.00,237.83 494.36,236.37 497.25,234.99 L 502.50 232.50 L 588.00 232.50 L 673.50 232.50 L 673.78 247.31 L 674.05 262.11 L 652.18 284.31 C602.64,334.58 520.50,416.01 519.38,415.96 C518.90,415.95 517.44,415.34 516.14,414.62 ZM 518.01 327.14 C515.38,326.38 514.39,324.03 515.48,321.19 C515.84,320.26 516.16,319.27 516.19,319.00 C516.22,318.73 517.54,316.62 519.12,314.32 C522.73,309.08 522.76,307.20 519.25,306.44 C517.74,306.10 515.83,305.58 515.00,305.27 C513.09,304.56 511.61,304.38 505.82,304.17 C503.20,304.08 500.48,303.34 499.64,302.50 C498.82,301.67 497.76,301.00 497.29,301.00 C496.83,301.00 494.96,299.65 493.15,297.99 C489.58,294.72 489.37,292.34 492.50,290.61 C493.60,290.00 494.76,289.16 495.07,288.74 C495.38,288.32 512.48,288.09 533.07,288.24 L 570.50 288.50 L 554.00 305.02 C539.05,319.99 529.21,328.72 531.53,324.95 C532.21,323.85 531.81,323.90 529.86,325.18 C526.72,327.23 521.36,328.11 518.01,327.14 ZM 768.41 60.62 C767.56,58.42 768.69,57.29 770.22,58.82 C771.12,59.72 771.12,60.28 770.23,61.17 C769.34,62.06 768.91,61.93 768.41,60.62 Z" fill="rgb(222,149,130)"/>
</g>
</svg>