<svg xmlns="http://www.w3.org/2000/svg" width="1024" height="1024" viewBox="0 0 1024 1024">
<g>
<path d="M 1022.62 466.25 C1022.99,471.61 1023.45,476.00 1023.65,476.00 C1023.84,476.00 1024.00,368.90 1024.00,238.00 L 1024.00 1024.00 L 0.00 1024.00 L 0.00 0.00 L 1024.00 0.00 L 775.75 0.19 C641.40,0.30 533.91,0.50 533.91,0.66 C533.91,0.66 533.94,0.66 534.00,0.66 C568.86,2.16 614.08,8.96 644.00,17.20 C719.25,37.92 782.60,70.80 842.00,119.96 C862.72,137.12 910.00,185.76 910.00,189.92 C910.00,190.51 910.43,191.00 910.95,191.00 C913.61,191.00 944.06,234.93 957.04,257.50 C965.36,271.97 981.48,305.25 987.89,321.18 C1005.83,365.78 1019.69,423.67 1022.62,466.25 ZM 763.50 750.85 C797.60,751.29 827.16,751.72 829.19,751.82 C831.22,751.92 833.15,751.57 833.47,751.05 C834.27,749.76 828.81,748.47 814.50,746.57 C807.90,745.69 797.55,744.31 791.50,743.50 C785.45,742.69 772.40,741.32 762.50,740.45 C752.60,739.58 738.65,738.24 731.50,737.48 C724.35,736.72 709.05,735.35 697.50,734.44 C685.95,733.53 675.93,732.32 675.23,731.75 C674.21,730.93 673.99,698.94 674.12,570.50 C674.21,482.37 673.97,409.76 673.58,409.14 C672.65,407.62 600.76,407.52 597.93,409.04 C596.09,410.02 596.00,411.42 596.00,438.48 C596.00,454.10 595.66,467.08 595.25,467.33 C594.84,467.57 567.09,467.93 533.58,468.14 C483.16,468.44 472.59,468.27 472.22,467.15 C471.95,466.36 513.11,424.46 572.04,365.52 C627.19,310.36 672.90,264.16 673.62,262.86 C675.38,259.69 675.53,233.93 673.80,232.20 C672.01,230.41 353.68,230.46 352.23,232.25 C351.36,233.31 350.34,315.11 350.86,341.26 L 351.00 348.02 L 428.50 347.50 L 428.77 329.07 C428.94,317.55 429.46,310.15 430.15,309.32 C431.03,308.26 439.91,308.00 475.06,308.00 C501.96,308.00 519.11,308.37 519.47,308.96 C520.37,310.41 518.01,312.85 440.50,390.95 C400.90,430.85 366.05,465.98 363.05,469.00 C360.05,472.02 356.11,476.23 354.30,478.34 L 351.00 482.19 L 350.98 605.84 C350.98,673.86 350.64,730.00 350.23,730.61 C349.15,732.24 344.12,732.94 322.24,734.52 C311.38,735.30 296.20,736.63 288.50,737.48 C280.80,738.33 267.69,739.71 259.37,740.56 C236.24,742.91 199.92,748.38 199.96,749.50 C199.99,750.16 284.12,750.42 450.75,750.28 C588.66,750.15 729.40,750.41 763.50,750.85 ZM 0.20 248.25 C0.30,382.43 0.52,489.60 0.69,489.60 C0.69,489.60 0.70,489.57 0.70,489.50 C0.87,485.65 1.69,475.08 2.52,466.01 C11.39,369.38 47.16,277.53 105.44,201.73 C168.78,119.35 252.43,59.57 350.00,26.96 C395.09,11.89 443.89,2.70 489.50,0.70 C489.57,0.70 489.60,0.69 489.60,0.69 C489.60,0.52 382.43,0.30 248.25,0.20 L 0.00 0.00 ZM 0.19 775.75 L 0.00 1024.00 L 238.75 1023.89 C447.65,1023.79 475.77,1023.60 463.64,1022.40 C360.50,1012.19 264.99,972.10 184.00,905.02 C169.43,892.95 135.26,859.12 122.41,844.04 C91.01,807.18 64.84,765.50 44.23,719.50 C18.71,662.56 3.76,598.73 0.66,533.50 C0.66,533.45 0.66,533.43 0.66,533.43 C0.50,533.43 0.29,641.23 0.19,775.75 ZM 560.87 1022.45 C549.41,1023.58 581.46,1023.79 785.75,1023.89 L 1024.00 1024.00 L 1023.89 785.75 C1023.79,581.46 1023.58,549.41 1022.45,560.87 C1012.96,656.66 978.10,745.90 920.44,822.00 C834.08,935.98 704.48,1008.22 560.87,1022.45 ZM 405.75 728.74 C405.06,729.28 397.68,730.00 389.34,730.32 C377.05,730.80 373.95,730.65 373.02,729.52 C372.15,728.48 371.91,698.32 372.08,610.31 C372.20,545.52 372.50,491.94 372.76,491.25 C373.11,490.28 380.94,490.00 407.36,490.02 C426.22,490.02 442.17,490.44 443.00,490.95 C443.83,491.45 483.28,530.70 530.68,578.17 C578.08,625.63 617.18,664.15 617.57,663.76 C617.61,663.73 617.64,663.69 617.67,663.66 C618.61,662.72 618.60,660.83 618.80,543.25 L 619.00 431.00 L 651.10 431.00 L 652.54 434.45 C653.78,437.40 653.97,455.70 653.85,560.20 C653.78,627.47 653.45,693.30 653.11,706.50 L 652.50 730.50 L 645.95 730.79 C642.35,730.95 638.41,730.72 637.20,730.27 C636.00,729.82 584.37,679.07 522.47,617.48 C460.58,555.89 409.28,505.35 408.47,505.18 C407.18,504.89 407.00,518.79 407.00,616.30 C407.00,704.27 406.74,727.96 405.75,728.74 ZM 438.80 467.60 C436.75,468.66 431.39,469.00 416.61,469.00 C397.27,469.00 394.98,468.61 396.70,465.61 C397.14,464.84 436.65,424.73 484.50,376.47 C532.35,328.22 571.50,288.24 571.50,287.62 C571.50,286.15 413.42,285.51 409.60,286.96 L 407.04 287.93 L 406.77 306.72 L 406.50 325.50 L 372.50 325.50 L 372.24 290.62 C372.05,266.30 372.31,255.33 373.08,254.41 C373.99,253.31 398.15,253.17 512.32,253.61 C588.30,253.90 650.63,254.29 650.82,254.49 C651.02,254.69 650.76,255.60 650.25,256.52 C648.57,259.52 441.57,466.16 438.80,467.60 ZM 602.52 728.98 C601.54,730.55 563.82,730.34 561.79,728.75 C560.91,728.06 559.50,725.03 558.64,722.00 C556.39,714.04 550.86,705.32 544.03,698.91 C532.88,688.45 520.96,684.00 504.08,684.00 C479.28,684.00 460.11,695.04 450.07,715.10 C447.83,719.57 446.00,723.82 446.00,724.54 C446.00,727.37 442.89,729.00 437.51,729.00 C434.57,729.00 431.45,728.73 430.58,728.39 C429.16,727.85 429.01,719.58 429.07,644.64 C429.11,598.91 429.48,560.64 429.89,559.59 C430.58,557.84 431.01,558.01 435.07,561.53 C437.51,563.65 461.77,587.50 489.00,614.53 C516.22,641.56 548.91,673.77 561.63,686.09 C589.78,713.38 603.36,727.61 602.52,728.98 ZM 595.76 549.94 C595.90,582.64 595.67,609.73 595.26,610.14 C594.84,610.56 573.35,589.87 547.50,564.17 C521.65,538.47 494.54,511.88 487.25,505.08 C479.96,498.29 474.00,492.11 474.00,491.36 C474.00,490.21 483.79,490.03 534.75,490.24 L 595.50 490.50 ZM 221.00 652.53 C221.00,653.80 227.31,654.00 268.44,654.00 C298.72,654.00 316.10,653.64 316.49,653.01 C317.70,651.06 312.53,647.34 307.68,646.68 C302.90,646.02 301.23,645.12 298.18,641.52 C292.78,635.14 288.62,631.98 283.52,630.37 C278.28,628.72 277.72,628.72 272.52,630.36 C268.12,631.75 266.10,633.17 262.31,637.56 C256.94,643.78 256.29,644.03 238.50,646.53 C226.04,648.28 221.00,650.00 221.00,652.53 ZM 431.24 791.08 C455.48,791.89 574.43,791.22 589.42,790.18 C600.72,789.40 603.20,787.65 594.45,786.62 C565.38,783.21 414.72,783.96 408.91,787.56 C405.73,789.52 411.40,790.42 431.24,791.08 ZM 516.19 771.00 C541.20,771.98 639.67,771.08 643.75,769.83 C645.54,769.29 647.00,768.48 647.00,768.03 C647.00,767.58 643.06,766.60 638.25,765.85 C626.23,763.99 522.68,763.98 509.50,765.83 C496.50,767.66 495.52,767.92 496.80,769.20 C497.45,769.85 505.29,770.58 516.19,771.00 ZM 705.60 670.16 C706.37,671.41 779.53,670.76 779.39,669.50 C779.20,667.76 774.74,666.19 767.00,665.14 C760.23,664.22 759.20,663.78 756.41,660.58 C752.47,656.07 747.04,653.80 740.03,653.74 C733.19,653.67 729.28,655.60 724.57,661.35 C721.36,665.27 720.45,665.78 715.74,666.27 C709.90,666.87 704.78,668.83 705.60,670.16 ZM 351.50 95.00 C351.84,95.55 352.55,96.00 353.08,96.00 C353.62,96.00 353.29,94.54 352.36,92.75 C351.31,90.72 350.51,90.01 350.22,90.87 C349.96,91.62 350.37,92.62 351.13,93.10 C351.88,93.58 352.14,93.98 351.69,93.98 C351.25,93.99 351.16,94.45 351.50,95.00 ZM 284.00 723.43 C284.00,724.67 285.82,723.90 286.39,722.42 C287.33,719.97 287.13,719.73 285.50,721.36 C284.67,722.18 284.00,723.11 284.00,723.43 ZM 881.50 581.00 C881.84,581.55 882.54,582.00 883.06,582.00 C883.58,582.00 884.00,581.55 884.00,581.00 C884.00,580.45 883.30,580.00 882.44,580.00 C881.58,580.00 881.16,580.45 881.50,581.00 ZM 251.00 867.00 C251.00,867.55 251.45,868.00 252.00,868.00 C252.55,868.00 253.00,867.55 253.00,867.00 C253.00,866.45 252.55,866.00 252.00,866.00 C251.45,866.00 251.00,866.45 251.00,867.00 ZM 616.00 164.00 C616.00,164.55 616.45,165.00 617.00,165.00 C617.55,165.00 618.00,164.55 618.00,164.00 C618.00,163.45 617.55,163.00 617.00,163.00 C616.45,163.00 616.00,163.45 616.00,164.00 ZM 608.00 34.00 C608.00,34.55 608.45,35.00 609.00,35.00 C609.55,35.00 610.00,34.55 610.00,34.00 C610.00,33.45 609.55,33.00 609.00,33.00 C608.45,33.00 608.00,33.45 608.00,34.00 ZM 867.00 785.00 C867.00,785.55 867.45,786.00 868.00,786.00 C868.55,786.00 869.00,785.55 869.00,785.00 C869.00,784.45 868.55,784.00 868.00,784.00 C867.45,784.00 867.00,784.45 867.00,785.00 Z" fill="rgb(8,6,4)"/>
<path d="M 763.50 750.85 C729.40,750.41 588.66,750.15 450.75,750.28 C284.12,750.42 199.99,750.16 199.96,749.50 C199.92,748.38 236.24,742.91 259.37,740.56 C267.69,739.71 280.80,738.33 288.50,737.48 C296.20,736.63 311.38,735.30 322.24,734.52 C344.12,732.94 349.15,732.24 350.23,730.61 C350.64,730.00 350.98,673.86 350.98,605.84 L 351.00 482.19 L 354.30 478.34 C356.11,476.23 360.05,472.02 363.05,469.00 C366.05,465.98 400.90,430.85 440.50,390.95 C518.01,312.85 520.37,310.41 519.47,308.96 C519.11,308.37 501.96,308.00 475.06,308.00 C439.91,308.00 431.03,308.26 430.15,309.32 C429.46,310.15 428.94,317.55 428.77,329.07 L 428.50 347.50 L 351.00 348.02 L 350.86 341.26 C350.34,315.11 351.36,233.31 352.23,232.25 C353.68,230.46 672.01,230.41 673.80,232.20 C675.53,233.93 675.38,259.69 673.62,262.86 C672.90,264.16 627.19,310.36 572.04,365.52 C513.11,424.46 471.95,466.36 472.22,467.15 C472.59,468.27 483.16,468.44 533.58,468.14 C567.09,467.93 594.84,467.57 595.25,467.33 C595.66,467.08 596.00,454.10 596.00,438.48 C596.00,411.42 596.09,410.02 597.93,409.04 C600.76,407.52 672.65,407.62 673.58,409.14 C673.97,409.76 674.21,482.37 674.12,570.50 C674.00,696.70 674.21,729.78 675.18,731.68 C674.20,729.86 673.97,697.25 674.04,572.11 C674.09,484.87 673.82,412.49 673.45,411.25 L 672.77 409.00 L 636.57 409.00 C609.19,409.00 599.97,409.30 598.70,410.25 C597.20,411.36 596.99,414.63 596.76,440.00 L 596.50 468.50 L 546.11 469.32 C490.64,470.23 488.57,470.45 488.40,475.50 C488.34,477.15 487.98,479.49 487.60,480.69 C486.75,483.37 488.70,484.60 496.22,486.09 C499.13,486.67 502.62,487.37 504.00,487.66 C505.38,487.94 525.85,488.37 549.50,488.62 C573.15,488.86 593.51,489.28 594.75,489.55 L 597.00 490.04 L 596.98 549.77 C596.98,586.11 596.59,610.09 596.01,611.00 C595.88,611.20 595.81,611.41 595.66,611.51 C594.67,612.19 590.24,607.83 542.33,560.64 L 535.51 553.92 C505.19,524.06 494.66,514.00 493.74,514.00 C493.41,514.00 492.45,514.70 491.60,515.54 C490.13,517.02 483.75,517.73 479.61,516.89 C476.09,516.17 476.91,518.68 481.79,523.60 C484.46,526.30 487.29,529.00 488.07,529.61 C492.09,532.72 502.11,544.32 503.35,547.29 C505.04,551.34 615.57,662.76 616.74,661.60 C617.16,661.17 617.50,609.37 617.50,546.46 C617.50,466.26 617.82,431.78 618.58,431.02 C619.28,430.32 625.34,430.04 636.06,430.22 L 652.47 430.50 L 653.17 434.50 C653.27,435.04 653.35,438.45 653.43,444.11 C653.22,437.86 652.94,435.39 652.54,434.45 L 651.10 431.00 L 619.00 431.00 L 618.80 543.25 C618.60,660.83 618.61,662.72 617.67,663.66 C617.64,663.69 617.61,663.73 617.57,663.76 C617.18,664.15 578.08,625.63 530.68,578.17 C483.28,530.70 443.83,491.45 443.00,490.95 C442.17,490.44 426.22,490.02 407.36,490.02 C380.94,490.00 373.11,490.28 372.76,491.25 C372.50,491.94 372.20,545.52 372.08,610.31 C371.91,698.32 372.15,728.48 373.02,729.52 C373.95,730.65 377.05,730.80 389.34,730.32 C397.68,730.00 405.06,729.28 405.75,728.74 C406.74,727.96 407.00,704.27 407.00,616.30 C407.00,518.79 407.18,504.89 408.47,505.18 C409.28,505.35 460.58,555.89 522.47,617.48 C584.30,679.00 635.88,729.70 637.20,730.27 L 637.18 730.26 C635.96,729.81 614.55,709.20 589.60,684.47 C521.89,617.34 492.28,589.17 496.37,595.78 C496.63,596.21 495.55,597.61 493.95,598.87 C492.19,600.28 490.80,602.55 490.40,604.66 C489.85,607.63 490.19,608.62 492.71,611.32 C494.33,613.07 497.56,617.33 499.87,620.79 C504.73,628.06 519.72,643.74 568.28,692.35 C571.38,695.44 574.37,698.46 577.22,701.35 C572.65,696.82 567.45,691.73 561.63,686.09 C548.91,673.77 516.22,641.56 489.00,614.53 C461.77,587.50 437.51,563.65 435.07,561.53 C431.01,558.01 430.58,557.84 429.89,559.59 C429.48,560.64 429.11,598.91 429.07,644.64 C429.01,719.58 429.16,727.85 430.58,728.39 C431.45,728.73 434.57,729.00 437.51,729.00 C442.89,729.00 446.00,727.37 446.00,724.54 C446.00,723.82 447.83,719.57 450.07,715.10 C457.75,699.76 470.76,689.70 487.54,685.81 C478.83,688.44 469.04,693.85 463.41,699.18 C454.85,707.27 452.37,717.98 457.22,725.85 C459.00,728.74 459.15,729.82 458.29,733.58 C457.22,738.23 457.44,739.00 459.84,739.00 C460.67,739.00 462.05,739.62 462.92,740.37 C463.79,741.13 467.88,742.79 472.00,744.06 C478.64,746.11 481.32,746.36 495.37,746.22 C506.31,746.11 511.90,746.44 513.37,747.28 C515.00,748.21 541.15,748.62 624.00,749.01 C818.76,749.93 823.58,749.93 821.27,748.99 C820.05,748.49 815.10,747.58 810.27,746.98 C805.45,746.37 794.30,744.81 785.50,743.52 C776.70,742.22 764.10,740.65 757.50,740.04 C754.11,739.72 749.37,739.26 744.52,738.78 C750.55,739.37 757.12,739.98 762.50,740.45 C772.40,741.32 785.45,742.69 791.50,743.50 C797.55,744.31 807.90,745.69 814.50,746.57 C828.81,748.47 834.27,749.76 833.47,751.05 C833.15,751.57 831.22,751.92 829.19,751.82 C827.16,751.72 797.60,751.29 763.50,750.85 ZM 438.80 467.60 C441.57,466.16 648.57,259.52 650.25,256.52 C650.76,255.60 651.02,254.69 650.82,254.49 C650.63,254.29 588.30,253.90 512.32,253.61 C398.15,253.17 373.99,253.31 373.08,254.41 C372.31,255.33 372.05,266.30 372.24,290.62 L 372.50 325.50 L 406.50 325.50 L 406.77 306.72 L 407.04 287.93 L 409.60 286.96 C413.42,285.51 571.50,286.15 571.50,287.62 C571.50,288.24 532.35,328.22 484.50,376.47 C436.65,424.73 397.14,464.84 396.70,465.61 C394.98,468.61 397.27,469.00 416.61,469.00 C431.39,469.00 436.75,468.66 438.80,467.60 ZM 473.00 461.51 C473.00,462.91 475.56,460.40 575.81,360.50 C628.25,308.25 671.79,264.28 672.58,262.80 C674.17,259.78 674.62,235.53 673.13,233.18 C672.44,232.09 654.95,231.92 574.90,232.23 C483.41,232.59 477.20,232.73 472.50,234.45 C464.88,237.25 462.04,241.12 465.49,243.99 C466.31,244.67 466.75,245.60 466.47,246.05 C466.19,246.51 466.90,247.76 468.06,248.84 C471.06,251.64 477.32,251.87 570.00,252.57 C614.28,252.91 650.88,253.55 651.35,254.00 C651.83,254.45 651.83,255.49 651.35,256.32 C650.31,258.17 512.06,398.00 481.83,427.78 C459.65,449.63 454.74,455.88 457.56,458.70 C459.32,460.46 462.93,460.34 463.64,458.50 C463.95,457.67 465.31,457.00 466.66,457.00 C468.01,457.00 470.77,455.86 472.80,454.48 C476.47,451.97 476.50,451.97 476.83,454.08 C477.02,455.24 476.23,457.19 475.08,458.41 C473.94,459.63 473.00,461.03 473.00,461.51 ZM 595.76 549.94 L 595.50 490.50 L 534.75 490.24 C483.79,490.03 474.00,490.21 474.00,491.36 C474.00,492.11 479.96,498.29 487.25,505.08 C494.54,511.88 521.65,538.47 547.50,564.17 C573.35,589.87 594.84,610.56 595.26,610.14 C595.67,609.73 595.90,582.64 595.76,549.94 ZM 478.65 368.53 C480.78,369.99 483.05,370.80 483.94,370.44 C484.80,370.09 486.10,369.71 486.84,369.58 C488.83,369.25 494.79,364.26 496.08,361.85 C496.88,360.36 496.88,359.95 496.10,360.44 C495.49,360.81 495.00,360.64 495.00,360.06 C495.00,359.07 496.42,358.58 498.32,358.91 C498.78,358.99 498.91,358.66 498.61,358.18 C498.32,357.71 499.74,355.78 501.77,353.91 C503.80,352.03 504.57,351.58 503.48,352.90 C501.50,355.29 501.50,355.29 503.51,354.24 C504.61,353.66 520.14,338.66 538.01,320.90 L 570.50 288.60 L 542.50 287.93 C527.10,287.56 505.49,287.54 494.48,287.88 C474.88,288.49 474.40,288.55 471.83,291.00 C468.23,294.44 467.51,297.37 469.72,299.57 C470.70,300.55 471.39,301.50 471.25,301.68 C470.47,302.68 471.22,304.00 472.56,304.00 C473.42,304.00 473.84,304.45 473.50,305.00 C472.92,305.94 486.56,306.44 500.84,306.01 C503.78,305.92 509.52,306.16 513.59,306.54 C520.48,307.19 521.00,307.40 521.00,309.56 C521.00,310.84 520.55,312.16 520.01,312.50 C518.33,313.53 503.39,330.93 498.72,337.29 C497.19,339.37 494.83,341.57 493.49,342.19 C492.14,342.80 490.80,344.07 490.50,345.00 C490.20,345.93 488.85,347.21 487.48,347.83 C486.12,348.45 485.00,349.46 485.00,350.07 C485.00,351.44 482.22,355.03 476.35,361.25 C473.55,364.21 472.44,366.00 473.39,366.00 C474.23,366.00 476.59,367.14 478.65,368.53 ZM 221.00 652.53 C221.00,650.00 226.04,648.28 238.50,646.53 C256.29,644.03 256.94,643.78 262.31,637.56 C266.10,633.17 268.12,631.75 272.52,630.36 C277.72,628.72 278.28,628.72 283.52,630.37 C288.62,631.98 292.78,635.14 298.18,641.52 C301.23,645.12 302.90,646.02 307.68,646.68 C312.53,647.34 317.70,651.06 316.49,653.01 C316.10,653.64 298.72,654.00 268.44,654.00 C227.31,654.00 221.00,653.80 221.00,652.53 ZM 431.24 791.08 C411.40,790.42 405.73,789.52 408.91,787.56 C414.72,783.96 565.38,783.21 594.45,786.62 C603.20,787.65 600.72,789.40 589.42,790.18 C574.43,791.22 455.48,791.89 431.24,791.08 ZM 516.19 771.00 C505.29,770.58 497.45,769.85 496.80,769.20 C495.52,767.92 496.50,767.66 509.50,765.83 C522.68,763.98 626.23,763.99 638.25,765.85 C643.06,766.60 647.00,767.58 647.00,768.03 C647.00,768.48 645.54,769.29 643.75,769.83 C639.67,771.08 541.20,771.98 516.19,771.00 ZM 541.02 768.05 C543.36,769.85 545.73,769.96 583.50,769.96 C605.50,769.97 624.04,769.63 624.70,769.21 C625.46,768.73 625.57,767.92 625.01,767.01 C624.27,765.82 617.45,765.51 584.12,765.17 C562.11,764.94 542.86,765.07 541.33,765.45 L 538.55 766.15 ZM 546.25 789.20 C553.44,789.54 568.87,789.06 570.81,788.44 C571.54,788.21 571.85,787.56 571.50,787.01 C571.13,786.40 564.73,786.00 555.44,786.00 C542.61,786.00 540.00,786.25 540.00,787.45 C540.00,788.54 541.59,788.98 546.25,789.20 ZM 351.50 95.00 C351.16,94.45 351.25,93.99 351.69,93.98 C352.14,93.98 351.88,93.58 351.13,93.10 C350.37,92.62 349.96,91.62 350.22,90.87 C350.51,90.01 351.31,90.72 352.36,92.75 C353.29,94.54 353.62,96.00 353.08,96.00 C352.55,96.00 351.84,95.55 351.50,95.00 ZM 0.58 540.84 C0.61,536.00 0.63,533.43 0.66,533.43 C0.66,533.43 0.66,533.45 0.66,533.50 C2.13,564.38 6.25,594.95 12.89,624.63 C7.67,601.40 3.98,577.70 1.96,554.00 C1.45,547.99 0.89,542.74 0.58,540.84 ZM 541.04 0.58 C543.15,0.90 548.45,1.43 554.50,1.94 C565.95,2.89 579.22,4.57 592.48,6.65 C572.57,3.61 551.92,1.44 534.00,0.66 C533.94,0.66 533.91,0.66 533.91,0.66 C533.91,0.63 536.38,0.61 541.04,0.58 ZM 433.59 6.48 C405.39,11.01 377.03,17.93 350.00,26.96 C378.49,17.44 405.28,10.84 433.59,6.48 ZM 284.00 723.43 C284.00,723.11 284.67,722.18 285.50,721.36 C287.13,719.73 287.33,719.97 286.39,722.42 C285.82,723.90 284.00,724.67 284.00,723.43 ZM 881.50 581.00 C881.16,580.45 881.58,580.00 882.44,580.00 C883.30,580.00 884.00,580.45 884.00,581.00 C884.00,581.55 883.58,582.00 883.06,582.00 C882.54,582.00 881.84,581.55 881.50,581.00 ZM 0.62 484.06 C0.93,482.17 1.70,474.83 2.47,466.51 C2.62,464.85 2.78,463.19 2.95,461.53 C12.66,366.12 48.04,276.39 105.44,201.73 C48.07,276.36 12.51,366.54 2.95,461.53 C2.80,463.02 2.66,464.52 2.52,466.01 C1.69,475.08 0.87,485.65 0.70,489.50 C0.70,489.57 0.69,489.60 0.69,489.60 C0.67,489.60 0.64,487.69 0.62,484.06 ZM 251.00 867.00 C251.00,866.45 251.45,866.00 252.00,866.00 C252.55,866.00 253.00,866.45 253.00,867.00 C253.00,867.55 252.55,868.00 252.00,868.00 C251.45,868.00 251.00,867.55 251.00,867.00 ZM 616.00 164.00 C616.00,163.45 616.45,163.00 617.00,163.00 C617.55,163.00 618.00,163.45 618.00,164.00 C618.00,164.55 617.55,165.00 617.00,165.00 C616.45,165.00 616.00,164.55 616.00,164.00 ZM 608.00 34.00 C608.00,33.45 608.45,33.00 609.00,33.00 C609.55,33.00 610.00,33.45 610.00,34.00 C610.00,34.55 609.55,35.00 609.00,35.00 C608.45,35.00 608.00,34.55 608.00,34.00 ZM 867.00 785.00 C867.00,784.45 867.45,784.00 868.00,784.00 C868.55,784.00 869.00,784.45 869.00,785.00 C869.00,785.55 868.55,786.00 868.00,786.00 C867.45,786.00 867.00,785.55 867.00,785.00 ZM 524.90 687.06 C531.92,689.46 538.08,693.33 544.03,698.91 C546.01,700.76 547.88,702.81 549.59,704.98 C543.17,697.04 534.40,690.55 524.90,687.06 ZM 477.67 1.37 C480.79,1.05 483.11,0.77 484.06,0.62 C487.69,0.64 489.60,0.67 489.60,0.69 C489.60,0.69 489.57,0.70 489.50,0.70 C485.58,0.87 481.63,1.10 477.67,1.37 ZM 559.10 723.47 C559.95,725.95 561.06,728.17 561.79,728.75 C562.41,729.24 566.40,729.60 571.66,729.81 C566.68,729.72 562.89,729.48 562.10,729.05 C561.08,728.51 559.79,726.10 559.10,723.47 ZM 653.64 640.92 C653.53,672.10 653.35,697.06 653.11,706.50 C653.30,698.88 653.50,673.74 653.64,640.92 ZM 602.49 728.52 C602.27,727.91 601.48,726.79 600.13,725.16 C601.85,727.06 602.77,728.19 602.72,728.35 C602.70,728.41 602.62,728.46 602.49,728.52 ZM 727.96 737.12 C719.66,736.31 706.74,735.17 697.00,734.40 C689.72,733.82 683.06,733.12 679.06,732.54 C683.13,733.13 689.99,733.84 697.50,734.44 C707.40,735.22 720.04,736.33 727.96,737.12 ZM 500.78 684.07 C501.87,684.02 502.97,684.00 504.08,684.00 C506.34,684.00 508.52,684.08 510.61,684.24 C507.42,684.02 504.03,683.97 500.78,684.07 Z" fill="rgb(139,93,146)"/>
<path d="M 602.52 728.98 C602.57,728.88 602.56,728.73 602.49,728.52 C602.62,728.46 602.70,728.41 602.72,728.35 C602.77,728.19 601.85,727.06 600.13,725.16 C596.53,720.83 588.90,712.90 577.22,701.35 C574.37,698.46 571.38,695.44 568.28,692.35 C519.72,643.74 504.73,628.06 499.87,620.79 C497.56,617.33 494.33,613.07 492.71,611.32 C490.19,608.62 489.85,607.63 490.40,604.66 C490.80,602.55 492.19,600.28 493.95,598.87 C495.55,597.61 496.63,596.21 496.37,595.78 C492.28,589.17 521.89,617.34 589.60,684.47 C614.55,709.20 635.96,729.81 637.18,730.26 L 637.20 730.27 L 637.20 730.27 C638.41,730.72 642.35,730.95 645.95,730.79 L 652.50 730.50 L 653.11 706.50 C653.30,698.88 653.50,673.74 653.64,640.92 C653.75,616.85 653.82,588.66 653.85,560.20 C653.93,488.77 653.87,457.62 653.43,444.11 L 653.43 444.11 C653.35,438.45 653.27,435.04 653.17,434.50 L 652.47 430.50 L 636.06 430.22 C625.34,430.04 619.28,430.32 618.58,431.02 C617.82,431.78 617.50,466.26 617.50,546.46 C617.50,609.37 617.16,661.17 616.74,661.60 C615.57,662.76 505.04,551.34 503.35,547.29 C502.11,544.32 492.09,532.72 488.07,529.61 C487.29,529.00 484.46,526.30 481.79,523.60 C476.91,518.68 476.09,516.17 479.61,516.89 C483.75,517.73 490.13,517.02 491.60,515.54 C492.45,514.70 493.41,514.00 493.74,514.00 C494.66,514.00 505.19,524.06 535.51,553.92 L 542.33 560.64 L 542.33 560.64 C590.24,607.83 594.67,612.19 595.66,611.51 C595.81,611.41 595.88,611.20 596.01,611.00 C596.59,610.09 596.98,586.11 596.98,549.77 L 597.00 490.04 L 594.75 489.55 C593.51,489.28 573.15,488.86 549.50,488.62 C525.85,488.37 505.38,487.94 504.00,487.66 C502.62,487.37 499.13,486.67 496.22,486.09 C488.70,484.60 486.75,483.37 487.60,480.69 C487.98,479.49 488.34,477.15 488.40,475.50 C488.57,470.45 490.64,470.23 546.11,469.32 L 596.50 468.50 L 596.76 440.00 C596.99,414.63 597.20,411.36 598.70,410.25 C599.97,409.30 609.19,409.00 636.57,409.00 L 672.77 409.00 L 673.45 411.25 C673.82,412.49 674.09,484.87 674.04,572.11 C673.97,697.25 674.20,729.86 675.18,731.68 C675.20,731.71 675.21,731.74 675.23,731.75 C675.47,731.95 676.86,732.23 679.06,732.54 L 679.09 732.55 C683.09,733.12 689.74,733.82 697.00,734.40 C706.74,735.17 719.65,736.31 727.95,737.12 L 727.96 737.12 C729.28,737.25 730.48,737.37 731.50,737.48 C734.77,737.83 739.45,738.30 744.52,738.78 C749.37,739.26 754.11,739.72 757.50,740.04 C764.10,740.65 776.70,742.22 785.50,743.52 C794.30,744.81 805.45,746.37 810.27,746.98 C815.10,747.58 820.05,748.49 821.27,748.99 C823.58,749.93 818.76,749.93 624.00,749.01 C541.15,748.62 515.00,748.21 513.37,747.28 C511.90,746.44 506.31,746.11 495.37,746.22 C481.32,746.36 478.64,746.11 472.00,744.06 C467.88,742.79 463.79,741.13 462.92,740.37 C462.05,739.62 460.67,739.00 459.84,739.00 C457.44,739.00 457.22,738.23 458.29,733.58 C459.15,729.82 459.00,728.74 457.22,725.85 C452.37,717.98 454.85,707.27 463.41,699.18 C469.04,693.85 478.83,688.44 487.54,685.81 C491.73,684.84 496.15,684.25 500.78,684.07 C504.03,683.97 507.42,684.02 510.61,684.24 C515.81,684.65 520.52,685.57 524.90,687.06 C534.40,690.55 543.17,697.04 549.59,704.98 C553.79,710.30 557.04,716.35 558.64,722.00 C558.78,722.49 558.93,722.99 559.10,723.47 C559.79,726.10 561.08,728.51 562.10,729.05 C562.89,729.48 566.68,729.72 571.66,729.81 C583.52,730.30 601.84,730.07 602.52,728.98 ZM 473.00 461.51 C473.00,461.03 473.94,459.63 475.08,458.41 C476.23,457.19 477.02,455.24 476.83,454.08 C476.50,451.97 476.47,451.97 472.80,454.48 C470.77,455.86 468.01,457.00 466.66,457.00 C465.31,457.00 463.95,457.67 463.64,458.50 C462.93,460.34 459.32,460.46 457.56,458.70 C454.74,455.88 459.65,449.63 481.83,427.78 C512.06,398.00 650.31,258.17 651.35,256.32 C651.83,255.49 651.83,254.45 651.35,254.00 C650.88,253.55 614.28,252.91 570.00,252.57 C477.32,251.87 471.06,251.64 468.06,248.84 C466.90,247.76 466.19,246.51 466.47,246.05 C466.75,245.60 466.31,244.67 465.49,243.99 C462.04,241.12 464.88,237.25 472.50,234.45 C477.20,232.73 483.41,232.59 574.90,232.23 C654.95,231.92 672.44,232.09 673.13,233.18 C674.62,235.53 674.17,259.78 672.58,262.80 C671.79,264.28 628.25,308.25 575.81,360.50 C475.56,460.40 473.00,462.91 473.00,461.51 ZM 478.65 368.53 C476.59,367.14 474.23,366.00 473.39,366.00 C472.44,366.00 473.55,364.21 476.35,361.25 C482.22,355.03 485.00,351.44 485.00,350.07 C485.00,349.46 486.12,348.45 487.48,347.83 C488.85,347.21 490.20,345.93 490.50,345.00 C490.80,344.07 492.14,342.80 493.49,342.19 C494.83,341.57 497.19,339.37 498.72,337.29 C503.39,330.93 518.33,313.53 520.01,312.50 C520.55,312.16 521.00,310.84 521.00,309.56 C521.00,307.40 520.48,307.19 513.59,306.54 C509.52,306.16 503.78,305.92 500.84,306.01 C486.56,306.44 472.92,305.94 473.50,305.00 C473.84,304.45 473.42,304.00 472.56,304.00 C471.22,304.00 470.47,302.68 471.25,301.68 C471.39,301.50 470.70,300.55 469.72,299.57 C467.51,297.37 468.23,294.44 471.83,291.00 C474.40,288.55 474.88,288.49 494.48,287.88 C505.49,287.54 527.10,287.56 542.50,287.93 L 570.50 288.60 L 538.01 320.90 C520.14,338.66 504.61,353.66 503.51,354.24 C501.50,355.29 501.50,355.29 503.48,352.90 C504.57,351.58 503.80,352.03 501.77,353.91 C499.74,355.78 498.32,357.71 498.61,358.18 C498.91,358.66 498.78,358.99 498.32,358.91 C496.42,358.58 495.00,359.07 495.00,360.06 C495.00,360.64 495.49,360.81 496.10,360.44 C496.88,359.95 496.88,360.36 496.08,361.85 C494.79,364.26 488.83,369.25 486.84,369.58 C486.10,369.71 484.80,370.09 483.94,370.44 C483.05,370.80 480.78,369.99 478.65,368.53 ZM 705.60 670.16 C704.78,668.83 709.90,666.87 715.74,666.27 C720.45,665.78 721.36,665.27 724.57,661.35 C729.28,655.60 733.19,653.67 740.03,653.74 C747.04,653.80 752.47,656.07 756.41,660.58 C759.20,663.78 760.23,664.22 767.00,665.14 C774.74,666.19 779.20,667.76 779.39,669.50 C779.53,670.76 706.37,671.41 705.60,670.16 ZM 541.02 768.05 L 538.55 766.15 L 541.33 765.45 C542.86,765.07 562.11,764.94 584.12,765.17 C617.45,765.51 624.27,765.82 625.01,767.01 C625.57,767.92 625.46,768.73 624.70,769.21 C624.04,769.63 605.50,769.97 583.50,769.96 C545.73,769.96 543.36,769.85 541.02,768.05 ZM 546.25 789.20 C541.59,788.98 540.00,788.54 540.00,787.45 C540.00,786.25 542.61,786.00 555.44,786.00 C564.73,786.00 571.13,786.40 571.50,787.01 C571.85,787.56 571.54,788.21 570.81,788.44 C568.87,789.06 553.44,789.54 546.25,789.20 Z" fill="rgb(219,145,133)"/>
<path d="M -0.00 781.83 C-0.00,648.64 0.18,539.85 0.41,540.08 C0.63,540.31 1.33,546.58 1.96,554.00 C6.86,611.42 21.52,668.83 44.23,719.50 C64.84,765.50 91.01,807.18 122.41,844.04 C135.26,859.12 169.43,892.95 184.00,905.02 C264.99,972.10 360.50,1012.19 463.64,1022.40 C475.77,1023.60 447.65,1023.79 238.75,1023.89 L 0.00 1024.00 L -0.00 781.83 ZM 560.87 1022.45 C704.48,1008.22 834.08,935.98 920.44,822.00 C978.10,745.90 1012.96,656.66 1022.45,560.87 C1023.58,549.41 1023.79,581.46 1023.89,785.75 L 1024.00 1024.00 L 785.75 1023.89 C581.46,1023.79 549.41,1023.58 560.87,1022.45 ZM 0.08 242.75 L 0.00 0.00 L 242.75 0.08 C376.26,0.12 485.05,0.33 484.50,0.53 C483.95,0.74 475.86,1.61 466.51,2.47 C425.27,6.27 389.26,13.84 350.00,26.96 C252.43,59.57 168.78,119.35 105.44,201.73 C47.04,277.69 11.43,369.25 2.47,466.51 C1.61,475.86 0.74,483.95 0.53,484.50 C0.33,485.05 0.12,376.26 0.08,242.75 ZM 1022.62 466.25 C1019.69,423.67 1005.83,365.78 987.89,321.18 C981.48,305.25 965.36,271.97 957.04,257.50 C944.06,234.93 913.61,191.00 910.95,191.00 C910.43,191.00 910.00,190.51 910.00,189.92 C910.00,185.76 862.72,137.12 842.00,119.96 C782.60,70.80 719.25,37.92 644.00,17.20 C620.86,10.83 582.31,4.25 554.50,1.94 C546.80,1.30 540.31,0.60 540.08,0.39 C539.85,0.17 648.64,0.00 781.83,0.00 L 1024.00 0.00 L 1024.00 238.00 C1024.00,368.90 1023.84,476.00 1023.65,476.00 C1023.45,476.00 1022.99,471.61 1022.62,466.25 Z" fill="rgb(254,254,254)"/>
</g>
</svg>